:version 1.10
:name ASF
:units
  mass 1
  length 1
  angle deg
:documentation
  ASF file generated by Kaydara
:root
  axis xyz
  order  tx ty tz rx ry rz
  position 0 0 0
  orientation 0 0 0
:bonedata
  begin
    id 1
    name lfemurDummy
    direction 0.61522 -0.761478 0.204097
    length 5.68318
    axis 0 -0 0 xyz
  end
  begin
    id 2
    name lfemur
    direction 0.34202 -0.939693 -5.84747e-008
    length 16.9147
    axis 0 -0 20 xyz
    dof rx ry rz
    limits( -inf , inf )
( -inf , inf )
( -inf , inf )

  end
  begin
    id 3
    name ltibia
    direction 0.34202 -0.939693 1.20839e-009
    length 18.0532
    axis 0 -0 20 xyz
    dof rz ry rx
    limits( -inf , inf )
( -inf , inf )
( -inf , inf )

  end
  begin
    id 4
    name lfoot
    direction 0.0841971 -0.23133 0.969225
    length 5.23822
    axis -90 7.62852e-016 20 xyz
    dof ry rx rz
    limits( -inf , inf )
( -inf , inf )
( -inf , inf )

  end
  begin
    id 5
    name ltoes
    direction 0 0 0
    length 0
    axis 0 0 0 xyz
    dof rz ry rx
    limits( -inf , inf )
( -inf , inf )
( -inf , inf )

  end
  begin
    id 6
    name rfemurDummy
    direction -0.625247 -0.75382 0.202044
    length 5.74091
    axis 0 -0 0 xyz
  end
  begin
    id 7
    name rfemur
    direction -0.34202 -0.939693 -1.47013e-008
    length 16.4922
    axis 0 -0 -20 xyz
    dof rx ry rz
    limits( -inf , inf )
( -inf , inf )
( -inf , inf )

  end
  begin
    id 8
    name rtibia
    direction -0.34202 -0.939693 -7.74345e-010
    length 18.2421
    axis 0 -0 -20 xyz
    dof rz ry rx
    limits( -inf , inf )
( -inf , inf )
( -inf , inf )

  end
  begin
    id 9
    name rfoot
    direction -0.124331 -0.341598 0.931586
    length 5.45787
    axis -90 -7.62852e-016 -20 xyz
    dof ry rx rz
    limits( -inf , inf )
( -inf , inf )
( -inf , inf )

  end
  begin
    id 10
    name rtoes
    direction 0 0 0
    length 0
    axis 0 0 0 xyz
    dof rz ry rx
    limits( -inf , inf )
( -inf , inf )
( -inf , inf )

  end
  begin
    id 11
    name lowerbackDummy
    direction 0 0 0
    length 0
    axis 0 -0 0 xyz
  end
  begin
    id 12
    name lowerback
    direction -0.0218484 0.994884 -0.0986304
    length 4.45607
    axis 0 -0 0 xyz
    dof rx ry rz
    limits( -inf , inf )
( -inf , inf )
( -inf , inf )

  end
  begin
    id 13
    name upperback
    direction -0.00973057 0.999717 -0.0217111
    length 4.47449
    axis 0 -0 0 xyz
    dof rx ry rz
    limits( -inf , inf )
( -inf , inf )
( -inf , inf )

  end
  begin
    id 14
    name thorax
    direction -0.000928171 0.999699 0.0245198
    length 4.50973
    axis 0 -0 0 xyz
    dof rx ry rz
    limits( -inf , inf )
( -inf , inf )
( -inf , inf )

  end
  begin
    id 15
    name rclavicle
    direction -0.9009 0.425937 -0.0834055
    length 7.28587
    axis 0 -0 0 xyz
    dof rx ry rz
    limits( -inf , inf )
( -inf , inf )
( -inf , inf )

  end
  begin
    id 16
    name rhumerus
    direction -1 -2.23604e-007 -1.42637e-007
    length 13.5704
    axis 180 30 90 xyz
    dof rx ry rz
    limits( -inf , inf )
( -inf , inf )
( -inf , inf )

  end
  begin
    id 17
    name rradius
    direction -1 5.68281e-008 -4.4952e-007
    length 8.06782
    axis 180 30 90 xyz
    dof rz ry rx
    limits( -inf , inf )
( -inf , inf )
( -inf , inf )

  end
  begin
    id 18
    name rwrist
    direction -1 1.51393e-007 1.38143e-007
    length 4.03391
    axis -90 -90 0 xyz
    dof rz rx ry
    limits( -inf , inf )
( -inf , inf )
( -inf , inf )

  end
  begin
    id 19
    name rthumb
    direction 0 0 0
    length 0
    axis 0 0 0 xyz
    dof ry rx rz
    limits( -inf , inf )
( -inf , inf )
( -inf , inf )

  end
  begin
    id 20
    name rhand
    direction -1 -3.34077e-007 -5.59631e-007
    length 1.29744
    axis -90 -90 0 xyz
    dof ry rx rz
    limits( -inf , inf )
( -inf , inf )
( -inf , inf )

  end
  begin
    id 21
    name rfingers
    direction 0 0 0
    length 0
    axis 0 0 0 xyz
    dof rz ry rx
    limits( -inf , inf )
( -inf , inf )
( -inf , inf )

  end
  begin
    id 22
    name lclavicle
    direction 0.940017 0.332249 -0.0773232
    length 8.29589
    axis 0 -0 0 xyz
    dof rx ry rz
    limits( -inf , inf )
( -inf , inf )
( -inf , inf )

  end
  begin
    id 23
    name lhumerus
    direction 1 7.41158e-008 -1.44768e-008
    length 12.0042
    axis 180 -30 -90 xyz
    dof rx ry rz
    limits( -inf , inf )
( -inf , inf )
( -inf , inf )

  end
  begin
    id 24
    name lradius
    direction 1 -1.32972e-007 3.10821e-007
    length 8.1902
    axis 180 -30 -90 xyz
    dof rz ry rx
    limits( -inf , inf )
( -inf , inf )
( -inf , inf )

  end
  begin
    id 25
    name lwrist
    direction 1 3.08957e-007 4.01394e-007
    length 4.09509
    axis -90 90 0 xyz
    dof rz rx ry
    limits( -inf , inf )
( -inf , inf )
( -inf , inf )

  end
  begin
    id 26
    name lthumb
    direction 0 0 0
    length 0
    axis 0 0 0 xyz
    dof ry rx rz
    limits( -inf , inf )
( -inf , inf )
( -inf , inf )

  end
  begin
    id 27
    name lhand
    direction 1 -1.64125e-007 -6.99514e-007
    length 1.37229
    axis -90 90 0 xyz
    dof ry rx rz
    limits( -inf , inf )
( -inf , inf )
( -inf , inf )

  end
  begin
    id 28
    name lfingers
    direction 0 0 0
    length 0
    axis 0 0 0 xyz
    dof rz ry rx
    limits( -inf , inf )
( -inf , inf )
( -inf , inf )

  end
  begin
    id 29
    name lowerneck
    direction -0.030798 0.998024 0.0547665
    length 3.93918
    axis 0 -0 0 xyz
    dof rx ry rz
    limits( -inf , inf )
( -inf , inf )
( -inf , inf )

  end
  begin
    id 30
    name upperneck
    direction 0.0531588 0.996611 -0.0627736
    length 3.95491
    axis 0 -0 0 xyz
    dof rx ry rz
    limits( -inf , inf )
( -inf , inf )
( -inf , inf )

  end
  begin
    id 31
    name head
    direction 0 0 0
    length 0
    axis 0 0 0 xyz
    dof rx ry rz
    limits( -inf , inf )
( -inf , inf )
( -inf , inf )

  end
:hierarchy
  begin
    root lfemurDummy rfemurDummy lowerbackDummy
    lfemurDummy lfemur
    lfemur ltibia
    ltibia lfoot
    lfoot ltoes
    rfemurDummy rfemur
    rfemur rtibia
    rtibia rfoot
    rfoot rtoes
    lowerbackDummy lowerback
    lowerback upperback
    upperback thorax
    thorax rclavicle lclavicle lowerneck
    rclavicle rhumerus
    rhumerus rradius
    rradius rwrist
    rwrist rthumb rhand
    rhand rfingers
    lclavicle lhumerus
    lhumerus lradius
    lradius lwrist
    lwrist lthumb lhand
    lhand lfingers
    lowerneck upperneck
    upperneck head
  end

:SAMPLES-PER-SECOND 30
:FULLY-SPECIFIED
:DEGREES
84
root  6.477755449 36.60888972 -2.556466681 11.01699829 -67.53800201 -4.684005737
lowerback  19.89450073 3.961950064 -2.806699991
upperback  6.281310081 4.249390125 -1.008270025
thorax  -4.430300236 1.952550054 -0.4642030001
lowerneck  -6.678380013 7.019800186 -3.540590048
upperneck  -2.403110027 9.598489761 -0.2470069975
head  0.1932480037 4.824960232 0.6844329834
lclavicle  0 -9.442270133e-015 7.951389973e-016
lhumerus  4.490580082 -19.91609955 84.57180023
lradius  2.600918951e-031 -2.388318372e-031 137.4400024
lwrist  -7.062250077e-031 -1.765562519e-031 8.141050339
lhand  -1.496451383e-031 -27.76390076 20.11240005
lfingers  90 7.125020027 -90
lthumb  89.89689403 5.08795885 91.16245106
rclavicle  0 -9.442270133e-015 7.951389973e-016
rhumerus  4.73747015 24.38139915 -75.32710266
rradius  -2.561090462e-031 2.430979161e-031 136.4929962
rwrist  7.062250077e-031 -1.765562519e-031 -3.178169966
rhand  -7.920061211e-032 -33.2840004 9.303460121
rfingers  -90 -7.125020027 -90
rthumb  -92.93752616 -24.25625642 -97.11982154
rfemur  -29.17630005 8.647780418 0.9347440004
rtibia  -0 0 68.57409668
rfoot  -4.703901271e-032 -20.22369957 2.694030046
rtoes  5.373923086 19.29304026 -105.8922705
lfemur  -47.56909943 -0.7549669743 2.715850115
ltibia  -0 0 66.040802
lfoot  -0 -6.524270058 -13.32349968
ltoes  -4.250644065 -19.5611806 -102.515957
85
root  6.532377709 36.56199898 -2.547311032 11.95599365 -67.65799713 -5.51499939
lowerback  19.61610031 3.892469883 -2.505000114
upperback  6.189529896 4.248410225 -0.8214820027
thorax  -4.378489971 1.956809998 -0.4217599928
lowerneck  -6.735070229 6.985479832 -3.433269978
upperneck  -1.901569963 9.554470062 -0.1690479964
head  0.3601750135 4.796309948 0.7077090144
lclavicle  0 -9.442270133e-015 7.951389973e-016
lhumerus  4.176239967 -19.92760086 84.87529755
lradius  2.595785782e-031 -2.39389645e-031 137.3170013
lwrist  -7.062250077e-031 -0 7.807179928
lhand  -1.496451383e-031 -27.76390076 20.11240005
lfingers  90 7.125020027 -90
lthumb  89.89689403 5.08795885 91.16245106
rclavicle  0 -9.442270133e-015 7.951389973e-016
rhumerus  4.552790165 24.55220032 -75.38009644
rradius  -2.554121629e-031 2.43829997e-031 136.3289948
rwrist  7.062250077e-031 -0 -2.462300062
rhand  -7.920061211e-032 -33.2840004 9.303460121
rfingers  -90 -7.125020027 -90
rthumb  -92.93752616 -24.25625642 -97.11982154
rfemur  -28.74650002 9.021679878 1.711779952
rtibia  -0 0 69.17620087
rfoot  -4.702665797e-032 -20.18280029 2.87635994
rtoes  5.373923086 19.29304026 -105.8922705
lfemur  -46.9416008 -0.05261259899 2.659260035
ltibia  -0 0 68.89360046
lfoot  -0 -6.907589912 -12.25699997
ltoes  -4.250644065 -19.5611806 -102.515957
86
root  6.571466341 36.48399894 -2.54526664 12.18299866 -67.73500061 -5.867996216
lowerback  19.54400063 3.745850086 -2.334110022
upperback  6.148859978 4.099629879 -0.7628629804
thorax  -4.375559807 1.885879993 -0.4181550145
lowerneck  -6.829810143 7.04005003 -3.273180008
upperneck  -1.51722002 9.623490334 -0.05579390004
head  0.4962739944 4.826310158 0.733716011
lclavicle  0 -9.442270133e-015 7.951389973e-016
lhumerus  3.893729925 -19.85029984 84.82460022
lradius  2.595326073e-031 -2.394394833e-031 137.3059998
lwrist  0 -0 7.416120052
lhand  -1.496451383e-031 -27.76390076 20.11240005
lfingers  90 7.125020027 -90
lthumb  89.89689403 5.08795885 91.16245106
rclavicle  0 -9.442270133e-015 7.951389973e-016
rhumerus  4.363409996 24.86759949 -75.68029785
rradius  -2.549862495e-031 2.442753629e-031 136.2290039
rwrist  3.531125038e-031 -3.531125038e-031 -1.895609975
rhand  -7.920061211e-032 -33.2840004 9.303460121
rfingers  -90 -7.125020027 -90
rthumb  -92.93752616 -24.25625642 -97.11982154
rfemur  -27.87999916 9.363769531 2.487890005
rtibia  -0 0 69.70970154
rfoot  -4.700441157e-032 -20.10890007 3.06682992
rtoes  5.373923086 19.29304026 -105.8922705
lfemur  -45.83399963 0.3985919952 2.432790041
ltibia  -0 0 71.27220154
lfoot  -0 -7.90143013 -11.11340046
ltoes  -4.250644065 -19.5611806 -102.515957
87
root  6.593911479 36.40022278 -2.550755523 11.63699341 -67.68699646 -5.470993042
lowerback  19.55879974 3.588670015 -2.405329943
upperback  6.088880062 3.880059958 -0.8229640126
thorax  -4.444980145 1.780369997 -0.3940980136
lowerneck  -6.828279972 7.022739887 -3.110869884
upperneck  -1.352460027 9.58866024 0.1180759966
head  0.547326982 4.808370113 0.7651259899
lclavicle  0 -9.442270133e-015 7.951389973e-016
lhumerus  3.6121099 -19.89100075 84.64910126
lradius  2.599292611e-031 -2.390088274e-031 137.401001
lwrist  -1.412450015e-030 1.765562519e-031 6.96009016
lhand  -1.496451383e-031 -27.76390076 20.11240005
lfingers  90 7.125020027 -90
lthumb  89.89689403 5.08795885 91.16245106
rclavicle  0 -9.442270133e-015 7.951389973e-016
rhumerus  3.917680025 25.16699982 -76.1740036
rradius  -2.551141116e-031 2.441418244e-031 136.2590027
rwrist  7.062250077e-031 -3.531125038e-031 -1.383829951
rhand  -7.920061211e-032 -33.2840004 9.303460121
rfingers  -90 -7.125020027 -90
rthumb  -92.93752616 -24.25625642 -97.11982154
rfemur  -26.71509933 9.307279587 3.078880072
rtibia  -0 0 69.99490356
rfoot  -4.688295887e-032 -19.69949913 3.59781003
rtoes  5.373923086 19.29304026 -105.8922705
lfemur  -44.37469864 0.6541590095 1.907780051
ltibia  -0 0 72.93160248
lfoot  -0 -9.303910255 -9.767160416
ltoes  -4.250644065 -19.5611806 -102.515957
88
root  6.598933663 36.28977678 -2.569422196 10.80200195 -67.47899628 -4.847000122
lowerback  19.62240028 3.443510056 -2.608350039
upperback  6.033010006 3.652060032 -0.8343120217
thorax  -4.546209812 1.670539975 -0.2443619967
lowerneck  -6.658430099 6.960919857 -3.173280001
upperneck  -1.40831995 9.502570152 0.3766100109
head  0.4882130027 4.769539833 0.8425880075
lclavicle  0 -9.442270133e-015 7.951389973e-016
lhumerus  3.324729919 -19.97739983 84.63020325
lradius  2.604375685e-031 -2.384548454e-031 137.522995
lwrist  -7.062250077e-031 -3.531125038e-031 6.496799946
lhand  -1.496451383e-031 -27.76390076 20.11240005
lfingers  90 7.125020027 -90
lthumb  89.89689403 5.08795885 91.16245106
rclavicle  0 -9.442270133e-015 7.951389973e-016
rhumerus  3.206809998 25.46360016 -76.64949799
rradius  -2.55297263e-031 2.439502979e-031 136.302002
rwrist  1.059337512e-030 -3.531125038e-031 -0.8018569946
rhand  -7.920061211e-032 -33.2840004 9.303460121
rfingers  -90 -7.125020027 -90
rthumb  -92.93752616 -24.25625642 -97.11982154
rfemur  -25.17620087 9.113630295 3.722980022
rtibia  -0 0 69.98390198
rfoot  -4.693728869e-032 -19.88389969 4.024919987
rtoes  5.373923086 19.29304026 -105.8922705
lfemur  -42.70220184 0.7877370119 1.379500031
ltibia  -0 0 73.85310364
lfoot  -0 -11.15970039 -8.169110298
ltoes  -4.250644065 -19.5611806 -102.515957
89
root  6.584577485 36.16888992 -2.600799959 9.783004761 -67.18099976 -4.027999878
lowerback  19.66609955 3.315749884 -2.941050053
upperback  5.955580235 3.422369957 -0.8601009846
thorax  -4.66493988 1.561239958 -0.03553799912
lowerneck  -6.519720078 6.941609859 -3.162509918
upperneck  -1.431589961 9.469790459 0.5879319906
head  0.4491589963 4.755849838 0.897709012
lclavicle  0 -9.442270133e-015 7.951389973e-016
lhumerus  2.956039906 -20.07239914 84.67559814
lradius  2.610277397e-031 -2.378086615e-031 137.6649933
lwrist  -7.062250077e-031 -3.531125038e-031 5.984330177
lhand  -1.496451383e-031 -27.76390076 20.11240005
lfingers  90 7.125020027 -90
lthumb  89.89689403 5.08795885 91.16245106
rclavicle  0 -9.442270133e-015 7.951389973e-016
rhumerus  2.307100058 25.71139908 -77.17919922
rradius  -2.557226087e-031 2.435043897e-031 136.4019928
rwrist  1.059337512e-030 -7.062250077e-031 -0.2424570024
rhand  -7.920061211e-032 -33.2840004 9.303460121
rfingers  -90 -7.125020027 -90
rthumb  -92.93752616 -24.25625642 -97.11982154
rfemur  -23.34679985 8.844639778 4.413219929
rtibia  -0 0 69.65090179
rfoot  -4.743067254e-032 -21.47120094 3.387360096
rtoes  5.373923086 19.29304026 -105.8922705
lfemur  -40.94580078 0.8098490238 0.8420100212
ltibia  -0 0 74.02449799
lfoot  4.540826162e-032 -13.57849979 -6.211770058
ltoes  -4.250644065 -19.5611806 -102.515957
